<svg id="navigation" xmlns="http://www.w3.org/2000/svg" width="95" height="24" viewBox="0 0 95 24">
  <defs>
    <style>
      .cls-1 {
        fill: #9b9ea3;
      }

      .cls-1, .cls-2, .cls-4, .cls-5 {
        fill-rule: evenodd;
      }

      .cls-2, .cls-6 {
        fill: #575c67;
      }

      .cls-3 {
        fill: #d8232a;
      }

      .cls-4 {
        fill: #909296;
      }

      .cls-5 {
        fill: #9da0a5;
      }
    </style>
  </defs>
  <g id="comics">
    <path id="comics-2" data-name="comics" class="cls-1" d="M662.691,253.516L671.643,255l-1.6-4.123A9.9,9.9,0,0,0,673,243.8,9.5,9.5,0,1,0,662.691,253.516Zm0.809-16.911a7.106,7.106,0,0,1,6.967,7.221,7.272,7.272,0,0,1-2.172,5.209l-1.364,1.349,0.952,2.011-4.771-1.4-0.2-.027A7.208,7.208,0,0,1,663.5,236.605Z" transform="translate(-654 -231)"/>
    <path id="comics1" class="cls-2" d="M661.281,240.125h2.688a1.25,1.25,0,0,1,1.25,1.25V241.5a1.25,1.25,0,0,1-1.25,1.25h-2.688a1.25,1.25,0,0,1-1.25-1.25v-0.125A1.25,1.25,0,0,1,661.281,240.125Zm0,4.375h4.438a1.25,1.25,0,0,1,1.25,1.25v0.125a1.25,1.25,0,0,1-1.25,1.25h-4.438a1.25,1.25,0,0,1-1.25-1.25V245.75A1.25,1.25,0,0,1,661.281,244.5Z" transform="translate(-654 -231)"/>
  </g>
  <g id="movie_icon" data-name="movie icon">
    <path id="movies" class="cls-1" d="M697.625,251.583a21.627,21.627,0,0,1-4.125-2.036v0.62A2.793,2.793,0,0,1,690.75,253h-9.625a2.793,2.793,0,0,1-2.75-2.833v-3.251A1.4,1.4,0,0,1,677,245.5v-3.833a1.4,1.4,0,0,1,1.375-1.417v-1.417a2.792,2.792,0,0,1,2.75-2.833h9.625a2.792,2.792,0,0,1,2.75,2.833v0.614a20.575,20.575,0,0,1,4.125-2.03A1.387,1.387,0,0,1,699,238.833v11.334A1.415,1.415,0,0,1,697.625,251.583Zm-6.875-4.25V240.25a1.4,1.4,0,0,0-1.375-1.417H682.5a1.4,1.4,0,0,0-1.375,1.417v8.5a1.4,1.4,0,0,0,1.375,1.417h6.875a1.4,1.4,0,0,0,1.375-1.417v-1.417Zm5.5-5.775-2.75,1.1v3.585l2.75,1.107v-5.8ZM681,241h2a2,2,0,0,1,2,2v1a2,2,0,0,1-2,2h-2a2,2,0,0,1-2-2v-1A2,2,0,0,1,681,241Z" transform="translate(-654 -231)"/>
    <rect id="movies1" class="cls-3" x="27" y="11" width="3" height="3" rx="1.5" ry="1.5"/>
  </g>
  <g id="video">
    <path id="video_copy" data-name="video copy" class="cls-4" d="M713,255a10,10,0,1,1,10-10A10,10,0,0,1,713,255Zm0-17.5a7.5,7.5,0,1,0,7.5,7.5A7.5,7.5,0,0,0,713,237.5Z" transform="translate(-654 -231)"/>
    <path id="video1_copy" data-name="video1 copy" class="cls-2" d="M716.488,245.431l-5.329,3.235a0.408,0.408,0,0,1-.676-0.385v-6.52a0.408,0.408,0,0,1,.676-0.386l5.329,3.235A0.441,0.441,0,0,1,716.488,245.431Z" transform="translate(-654 -231)"/>
  </g>
  <g id="game">
    <path id="game-2" data-name="game" class="cls-5" d="M732,237.719h12a5,5,0,0,1,5,5V248a5,5,0,0,1-5,5H732a5,5,0,0,1-5-5v-5.281A5,5,0,0,1,732,237.719Zm0.719,2.187h10.562a3.5,3.5,0,0,1,3.5,3.5v3.875a3.5,3.5,0,0,1-3.5,3.5H732.719a3.5,3.5,0,0,1-3.5-3.5v-3.875A3.5,3.5,0,0,1,732.719,239.906Zm4.062-7.687H737a1,1,0,0,1,1,1v5.687a1,1,0,0,1-1,1h-0.219a1,1,0,0,1-1-1v-5.687A1,1,0,0,1,736.781,232.219Zm0,0h4.625a1,1,0,0,1,1,1v0.187a1,1,0,0,1-1,1h-4.625a1,1,0,0,1-1-1v-0.187A1,1,0,0,1,736.781,232.219ZM741.219,231h0.187a1,1,0,0,1,1,1v1.406a1,1,0,0,1-1,1h-0.187a1,1,0,0,1-1-1V232A1,1,0,0,1,741.219,231Z" transform="translate(-654 -231)"/>
    <path id="game1" class="cls-2" d="M734.49,243h0.02a0.833,0.833,0,0,1,.834.833v3.334a0.833,0.833,0,0,1-.834.833h-0.02a0.833,0.833,0,0,1-.834-0.833v-3.334A0.833,0.833,0,0,1,734.49,243Zm-1.657,1.656h3.334a0.833,0.833,0,0,1,.833.834v0.02a0.833,0.833,0,0,1-.833.834h-3.334A0.833,0.833,0,0,1,732,245.51v-0.02A0.833,0.833,0,0,1,732.833,244.656Z" transform="translate(-654 -231)"/>
    <circle id="game2" class="cls-6" cx="87.5" cy="14.5" r="1.5"/>
  </g>
</svg>
